<mxfile host="app.diagrams.net" modified="2023-10-04T16:17:31.326Z" agent="Mozilla/5.0 (Windows NT 10.0; Win64; x64) AppleWebKit/537.36 (KHTML, like Gecko) Chrome/117.0.0.0 Safari/537.36" etag="sqbMaOdAmiZgulL6rNgb" version="22.0.2" type="device">
  <diagram name="1 oldal" id="iu5Diuz4FYVfwSt0UJag">
    <mxGraphModel dx="1434" dy="790" grid="1" gridSize="10" guides="1" tooltips="1" connect="1" arrows="1" fold="1" page="1" pageScale="1" pageWidth="827" pageHeight="1169" math="0" shadow="0">
      <root>
        <mxCell id="0" />
        <mxCell id="1" parent="0" />
        <mxCell id="--g3FwgQ5CfWN7kddYLm-1" style="edgeStyle=orthogonalEdgeStyle;rounded=0;orthogonalLoop=1;jettySize=auto;html=1;entryX=0.5;entryY=0;entryDx=0;entryDy=0;" edge="1" parent="1" source="--g3FwgQ5CfWN7kddYLm-2" target="--g3FwgQ5CfWN7kddYLm-11">
          <mxGeometry relative="1" as="geometry" />
        </mxCell>
        <mxCell id="--g3FwgQ5CfWN7kddYLm-2" value="start" style="ellipse;whiteSpace=wrap;html=1;aspect=fixed;" vertex="1" parent="1">
          <mxGeometry x="120" y="70" width="140" height="140" as="geometry" />
        </mxCell>
        <mxCell id="--g3FwgQ5CfWN7kddYLm-3" value="end" style="ellipse;whiteSpace=wrap;html=1;aspect=fixed;" vertex="1" parent="1">
          <mxGeometry x="570" y="960" width="150" height="150" as="geometry" />
        </mxCell>
        <mxCell id="--g3FwgQ5CfWN7kddYLm-4" style="edgeStyle=orthogonalEdgeStyle;rounded=0;orthogonalLoop=1;jettySize=auto;html=1;" edge="1" parent="1" source="--g3FwgQ5CfWN7kddYLm-5" target="--g3FwgQ5CfWN7kddYLm-13">
          <mxGeometry relative="1" as="geometry" />
        </mxCell>
        <mxCell id="--g3FwgQ5CfWN7kddYLm-5" value="&lt;font style=&quot;font-size: 15px;&quot;&gt;maxi = 0&lt;/font&gt;" style="rounded=0;whiteSpace=wrap;html=1;" vertex="1" parent="1">
          <mxGeometry x="130" y="340" width="120" height="60" as="geometry" />
        </mxCell>
        <mxCell id="f0ySJm_NzDYcOH5DnIXB-8" style="edgeStyle=orthogonalEdgeStyle;rounded=0;orthogonalLoop=1;jettySize=auto;html=1;entryX=0;entryY=0.5;entryDx=0;entryDy=0;" edge="1" parent="1" source="--g3FwgQ5CfWN7kddYLm-7" target="f0ySJm_NzDYcOH5DnIXB-7">
          <mxGeometry relative="1" as="geometry">
            <mxPoint x="190" y="1030" as="targetPoint" />
            <Array as="points">
              <mxPoint x="190" y="1010" />
            </Array>
          </mxGeometry>
        </mxCell>
        <mxCell id="f0ySJm_NzDYcOH5DnIXB-10" style="edgeStyle=orthogonalEdgeStyle;rounded=0;orthogonalLoop=1;jettySize=auto;html=1;entryX=0;entryY=0.5;entryDx=0;entryDy=0;" edge="1" parent="1" source="--g3FwgQ5CfWN7kddYLm-7" target="f0ySJm_NzDYcOH5DnIXB-2">
          <mxGeometry relative="1" as="geometry" />
        </mxCell>
        <mxCell id="--g3FwgQ5CfWN7kddYLm-7" value="hossz = index" style="rhombus;whiteSpace=wrap;html=1;" vertex="1" parent="1">
          <mxGeometry x="125" y="760" width="130" height="130" as="geometry" />
        </mxCell>
        <mxCell id="--g3FwgQ5CfWN7kddYLm-10" style="edgeStyle=orthogonalEdgeStyle;rounded=0;orthogonalLoop=1;jettySize=auto;html=1;entryX=0.5;entryY=0;entryDx=0;entryDy=0;" edge="1" parent="1" source="--g3FwgQ5CfWN7kddYLm-11" target="--g3FwgQ5CfWN7kddYLm-5">
          <mxGeometry relative="1" as="geometry" />
        </mxCell>
        <mxCell id="--g3FwgQ5CfWN7kddYLm-11" value="be:lista" style="shape=parallelogram;perimeter=parallelogramPerimeter;whiteSpace=wrap;html=1;fixedSize=1;" vertex="1" parent="1">
          <mxGeometry x="122.5" y="240" width="135" height="60" as="geometry" />
        </mxCell>
        <mxCell id="--g3FwgQ5CfWN7kddYLm-12" style="edgeStyle=orthogonalEdgeStyle;rounded=0;orthogonalLoop=1;jettySize=auto;html=1;entryX=0.5;entryY=0;entryDx=0;entryDy=0;" edge="1" parent="1" source="--g3FwgQ5CfWN7kddYLm-13" target="--g3FwgQ5CfWN7kddYLm-15">
          <mxGeometry relative="1" as="geometry" />
        </mxCell>
        <mxCell id="--g3FwgQ5CfWN7kddYLm-13" value="&lt;font style=&quot;font-size: 14px;&quot;&gt;hossz = lista.lenght&lt;/font&gt;" style="rounded=0;whiteSpace=wrap;html=1;" vertex="1" parent="1">
          <mxGeometry x="125" y="440" width="130" height="52" as="geometry" />
        </mxCell>
        <mxCell id="--g3FwgQ5CfWN7kddYLm-14" style="edgeStyle=orthogonalEdgeStyle;rounded=0;orthogonalLoop=1;jettySize=auto;html=1;entryX=0.5;entryY=0;entryDx=0;entryDy=0;" edge="1" parent="1" source="--g3FwgQ5CfWN7kddYLm-15" target="--g3FwgQ5CfWN7kddYLm-7">
          <mxGeometry relative="1" as="geometry" />
        </mxCell>
        <mxCell id="--g3FwgQ5CfWN7kddYLm-15" value="&lt;font style=&quot;font-size: 16px;&quot;&gt;index = lista[0]&lt;/font&gt;" style="rounded=0;whiteSpace=wrap;html=1;" vertex="1" parent="1">
          <mxGeometry x="125" y="540" width="130" height="60" as="geometry" />
        </mxCell>
        <mxCell id="f0ySJm_NzDYcOH5DnIXB-13" style="edgeStyle=orthogonalEdgeStyle;rounded=0;orthogonalLoop=1;jettySize=auto;html=1;entryX=0.5;entryY=1;entryDx=0;entryDy=0;" edge="1" parent="1" source="f0ySJm_NzDYcOH5DnIXB-2" target="f0ySJm_NzDYcOH5DnIXB-5">
          <mxGeometry relative="1" as="geometry" />
        </mxCell>
        <mxCell id="f0ySJm_NzDYcOH5DnIXB-2" value="&lt;font style=&quot;font-size: 15px;&quot;&gt;lista[i]&amp;gt;lista[maxi]&lt;/font&gt;" style="rhombus;whiteSpace=wrap;html=1;" vertex="1" parent="1">
          <mxGeometry x="370" y="750" width="150" height="150" as="geometry" />
        </mxCell>
        <mxCell id="f0ySJm_NzDYcOH5DnIXB-3" value="&lt;font style=&quot;font-size: 14px;&quot;&gt;maxi = lista[i]&lt;/font&gt;" style="rounded=0;whiteSpace=wrap;html=1;" vertex="1" parent="1">
          <mxGeometry x="590" y="792.5" width="130" height="60.67" as="geometry" />
        </mxCell>
        <mxCell id="f0ySJm_NzDYcOH5DnIXB-14" style="edgeStyle=orthogonalEdgeStyle;rounded=0;orthogonalLoop=1;jettySize=auto;html=1;" edge="1" parent="1" source="f0ySJm_NzDYcOH5DnIXB-5">
          <mxGeometry relative="1" as="geometry">
            <mxPoint x="190" y="760" as="targetPoint" />
          </mxGeometry>
        </mxCell>
        <mxCell id="f0ySJm_NzDYcOH5DnIXB-5" value="index += 1" style="rounded=0;whiteSpace=wrap;html=1;" vertex="1" parent="1">
          <mxGeometry x="375" y="640" width="140" height="60" as="geometry" />
        </mxCell>
        <mxCell id="f0ySJm_NzDYcOH5DnIXB-9" style="edgeStyle=orthogonalEdgeStyle;rounded=0;orthogonalLoop=1;jettySize=auto;html=1;entryX=0;entryY=0.5;entryDx=0;entryDy=0;" edge="1" parent="1" source="f0ySJm_NzDYcOH5DnIXB-7" target="--g3FwgQ5CfWN7kddYLm-3">
          <mxGeometry relative="1" as="geometry" />
        </mxCell>
        <mxCell id="f0ySJm_NzDYcOH5DnIXB-7" value="&lt;font style=&quot;font-size: 14px;&quot;&gt;ki:maxi&lt;/font&gt;" style="shape=parallelogram;perimeter=parallelogramPerimeter;whiteSpace=wrap;html=1;fixedSize=1;" vertex="1" parent="1">
          <mxGeometry x="240" y="980" width="120" height="60" as="geometry" />
        </mxCell>
        <mxCell id="f0ySJm_NzDYcOH5DnIXB-11" style="edgeStyle=orthogonalEdgeStyle;rounded=0;orthogonalLoop=1;jettySize=auto;html=1;entryX=-0.023;entryY=0.618;entryDx=0;entryDy=0;entryPerimeter=0;" edge="1" parent="1" source="f0ySJm_NzDYcOH5DnIXB-2" target="f0ySJm_NzDYcOH5DnIXB-3">
          <mxGeometry relative="1" as="geometry" />
        </mxCell>
        <mxCell id="f0ySJm_NzDYcOH5DnIXB-12" style="edgeStyle=orthogonalEdgeStyle;rounded=0;orthogonalLoop=1;jettySize=auto;html=1;entryX=1.007;entryY=0.4;entryDx=0;entryDy=0;entryPerimeter=0;" edge="1" parent="1" source="f0ySJm_NzDYcOH5DnIXB-3" target="f0ySJm_NzDYcOH5DnIXB-5">
          <mxGeometry relative="1" as="geometry">
            <Array as="points">
              <mxPoint x="650" y="664" />
            </Array>
          </mxGeometry>
        </mxCell>
      </root>
    </mxGraphModel>
  </diagram>
</mxfile>
